<svg xmlns="http://www.w3.org/2000/svg" viewBox="0 0 600 1000">
  <defs>
    <radialGradient id="r" cx="50%" cy="48%" r="65%"><stop stop-color="#343434"/><stop offset="1" stop-color="#050505"/></radialGradient>
    <filter id="noise"><feTurbulence baseFrequency=".85" numOctaves="3"/><feColorMatrix type="saturate" values="0"/><feComponentTransfer><feFuncA type="table" tableValues="0 .13"/></feComponentTransfer></filter>
  </defs>
  <rect width="600" height="1000" fill="url(#r)"/>
  <g fill="none" stroke="#d7d7d7" stroke-opacity=".25" stroke-width="2"><path d="M-50 210L650 590"/><path d="M-50 265L650 645"/><path d="M-50 320L650 700"/><path d="M-50 375L650 755"/><path d="M-50 430L650 810"/></g>
  <g fill="none" stroke="#efefef" stroke-opacity=".62" stroke-width="8"><path d="M80 720C134 560 226 605 291 447S432 284 535 233"/><path d="M85 775C170 682 227 721 317 618S429 529 520 488" stroke-opacity=".22"/></g>
  <circle cx="295" cy="450" r="27" fill="#e1e1e1"/><circle cx="295" cy="450" r="65" fill="none" stroke="#eee" stroke-opacity=".18"/>
  <text x="58" y="125" fill="#e8e8e8" font-family="Georgia,serif" font-size="62" font-weight="700">ALL IN LINE</text>
  <text x="61" y="164" fill="#a8a8a8" font-family="monospace" font-size="17" letter-spacing="4">SEARCH / MULTI-CHANNEL</text>
  <rect width="600" height="1000" filter="url(#noise)" opacity=".5"/>
</svg>
